<svg xmlns="http://www.w3.org/2000/svg" aria-hidden="true"><symbol id="icon-projects" viewBox="0 0 24 24">
  <rect x="5" y="7" width="12" height="12" rx="2" ry="2" fill="none" stroke="#1A1F2B" stroke-width="2.2"/>
  <rect x="7" y="5" width="12" height="12" rx="2" ry="2" fill="none" stroke="#1A1F2B" stroke-width="2.2"/>
  <path d="M8 10h8M8 14h5" stroke="#1A1F2B" stroke-width="2.2" stroke-linecap="round"/>
</symbol><symbol id="icon-expertise" viewBox="0 0 24 24">
  <circle cx="9" cy="9" r="3.5" fill="none" stroke="#1A1F2B" stroke-width="2.2"/>
  <path d="M11.5 11.5l5.5 5.5M16 14l2 2" stroke="#1A1F2B" stroke-width="2.2" stroke-linecap="round"/>
  <path d="M14 5l5 5-2 2-5-5z" fill="#8AC6A6" stroke="#1A1F2B" stroke-width="2.2"/>
</symbol><symbol id="icon-method" viewBox="0 0 24 24">
  <rect x="3" y="4" width="7" height="5" rx="1" fill="none" stroke="#1A1F2B" stroke-width="2.2"/>
  <rect x="14" y="4" width="7" height="5" rx="1" fill="none" stroke="#1A1F2B" stroke-width="2.2"/>
  <rect x="9" y="15" width="7" height="5" rx="1" fill="none" stroke="#1A1F2B" stroke-width="2.2"/>
  <path d="M10 9c2 2 4 2 6 0" stroke="#1A1F2B" stroke-width="2.2" stroke-linecap="round"/>
  <path d="M7 9v4M17 9v4" stroke="#1A1F2B" stroke-width="2.2" stroke-linecap="round"/>
</symbol><symbol id="icon-writings" viewBox="0 0 24 24">
  <path d="M5 6h10l4 4v8a2 2 0 0 1-2 2H7a2 2 0 0 1-2-2V6z" fill="none" stroke="#1A1F2B" stroke-width="2.2"/>
  <path d="M15 6v4h4" stroke="#1A1F2B" stroke-width="2.2" stroke-linecap="round"/>
  <path d="M8 13h8M8 16h8" stroke="#1A1F2B" stroke-width="2.2" stroke-linecap="round"/>
</symbol><symbol id="icon-play" viewBox="0 0 24 24">
  <rect x="3" y="6" width="18" height="12" rx="3" fill="none" stroke="#1A1F2B" stroke-width="2.2"/>
  <path d="M10 9l6 3-6 3z" fill="#C9A227" stroke="#1A1F2B" stroke-width="1.8" />
</symbol><symbol id="icon-contact" viewBox="0 0 24 24">
  <rect x="3" y="6" width="18" height="12" rx="2" fill="none" stroke="#1A1F2B" stroke-width="2.2"/>
  <path d="M4 8l8 5 8-5" fill="none" stroke="#1A1F2B" stroke-width="2.2" stroke-linecap="round"/>
</symbol><symbol id="icon-arrow-right" viewBox="0 0 24 24">
  <path d="M4 12h12" stroke="#1A1F2B" stroke-width="2.6" stroke-linecap="round"/>
  <path d="M12 6l6 6-6 6" fill="none" stroke="#1A1F2B" stroke-width="2.6" stroke-linejoin="round" stroke-linecap="round"/>
</symbol><symbol id="icon-external" viewBox="0 0 24 24">
  <rect x="4" y="8" width="12" height="12" rx="2" fill="none" stroke="#1A1F2B" stroke-width="2.2"/>
  <path d="M10 14l8-8M14 6h4v4" fill="none" stroke="#1A1F2B" stroke-width="2.2" stroke-linecap="round" stroke-linejoin="round"/>
</symbol><symbol id="icon-code" viewBox="0 0 24 24">
  <path d="M8 6L4 12l4 6" fill="none" stroke="#1A1F2B" stroke-width="2.2" stroke-linecap="round" stroke-linejoin="round"/>
  <path d="M16 6l4 6-4 6" fill="none" stroke="#1A1F2B" stroke-width="2.2" stroke-linecap="round" stroke-linejoin="round"/>
  <path d="M10 19l4-14" stroke="#1A1F2B" stroke-width="2.2" stroke-linecap="round"/>
</symbol><symbol id="icon-lms" viewBox="0 0 24 24">
  <rect x="3" y="5" width="18" height="14" rx="2" fill="none" stroke="#1A1F2B" stroke-width="2.2"/>
  <path d="M6 9h12" stroke="#1A1F2B" stroke-width="2.2" stroke-linecap="round"/>
  <path d="M12 5l4 4h-8z" fill="#8AC6A6" stroke="#1A1F2B" stroke-width="2.2"/>
</symbol><symbol id="icon-xapi" viewBox="0 0 24 24">
  <circle cx="12" cy="12" r="7.5" fill="none" stroke="#1A1F2B" stroke-width="2.2"/>
  <path d="M7 7l10 10M17 7L7 17" stroke="#1A1F2B" stroke-width="2.2" stroke-linecap="round"/>
  <circle cx="12" cy="12" r="2.5" fill="#C9A227" stroke="#1A1F2B" stroke-width="1.4"/>
</symbol><symbol id="icon-scorm" viewBox="0 0 24 24">
  <path d="M4 10l8-5 8 5v8l-8 5-8-5v-8z" fill="none" stroke="#1A1F2B" stroke-width="2.2"/>
  <path d="M12 5v18" stroke="#1A1F2B" stroke-width="2.2"/>
</symbol><symbol id="icon-article" viewBox="0 0 24 24">
  <rect x="5" y="3" width="14" height="18" rx="2" fill="none" stroke="#1A1F2B" stroke-width="2.2"/>
  <path d="M8 8h8M8 12h8M8 16h5" stroke="#1A1F2B" stroke-width="2.2" stroke-linecap="round"/>
</symbol><symbol id="icon-tag" viewBox="0 0 24 24">
  <path d="M3 12l7-7h7l4 4v7l-7 7-11-11z" fill="none" stroke="#1A1F2B" stroke-width="2.2"/>
  <circle cx="16" cy="8" r="1.6" fill="#C9A227" stroke="#1A1F2B" stroke-width="1.2"/>
</symbol><symbol id="icon-filter" viewBox="0 0 24 24">
  <path d="M4 6h16l-6 7v5l-4 2v-7L4 6z" fill="none" stroke="#1A1F2B" stroke-width="2.2" stroke-linejoin="round"/>
</symbol><symbol id="icon-search" viewBox="0 0 24 24">
  <circle cx="11" cy="11" r="6" fill="none" stroke="#1A1F2B" stroke-width="2.2"/>
  <path d="M16 16l4 4" stroke="#1A1F2B" stroke-width="2.2" stroke-linecap="round"/>
</symbol><symbol id="icon-download" viewBox="0 0 24 24">
  <path d="M12 4v10" stroke="#1A1F2B" stroke-width="2.2" stroke-linecap="round"/>
  <path d="M7 10l5 5 5-5" fill="none" stroke="#1A1F2B" stroke-width="2.2" stroke-linejoin="round"/>
  <rect x="5" y="18" width="14" height="2" fill="#1A1F2B"/>
</symbol><symbol id="icon-phone" viewBox="0 0 24 24">
  <path d="M6 3h12a2 2 0 0 1 2 2v14a2 2 0 0 1-2 2H6a2 2 0 0 1-2-2V5a2 2 0 0 1 2-2z" fill="none" stroke="#1A1F2B" stroke-width="2.2"/>
  <circle cx="12" cy="18" r="1.4" fill="#1A1F2B"/>
</symbol><symbol id="icon-calendar" viewBox="0 0 24 24">
  <rect x="3" y="5" width="18" height="16" rx="2" fill="none" stroke="#1A1F2B" stroke-width="2.2"/>
  <path d="M7 3v4M17 3v4M3 10h18" stroke="#1A1F2B" stroke-width="2.2" stroke-linecap="round"/>
  <rect x="7" y="12" width="4" height="3" fill="#8AC6A6" stroke="#1A1F2B" stroke-width="1.6"/>
</symbol><symbol id="icon-star" viewBox="0 0 24 24">
  <path d="M12 3l3 6 6 1-4.5 4.2L18 21l-6-3.2L6 21l1.5-6.8L3 10l6-1z" fill="#C9A227" stroke="#1A1F2B" stroke-width="2.2" stroke-linejoin="round"/>
</symbol><symbol id="icon-chart" viewBox="0 0 24 24">
  <path d="M4 20h16" stroke="#1A1F2B" stroke-width="2.2" stroke-linecap="round"/>
  <rect x="6" y="11" width="3" height="7" fill="#8AC6A6" stroke="#1A1F2B" stroke-width="1.6"/>
  <rect x="11" y="8" width="3" height="10" fill="#C9A227" stroke="#1A1F2B" stroke-width="1.6"/>
  <rect x="16" y="5" width="3" height="13" fill="none" stroke="#1A1F2B" stroke-width="2.2"/>
</symbol><symbol id="icon-check" viewBox="0 0 24 24">
  <path d="M4 13l5 5 11-11" fill="none" stroke="#1A1F2B" stroke-width="2.8" stroke-linecap="round" stroke-linejoin="round"/>
</symbol><symbol id="icon-close" viewBox="0 0 24 24">
  <path d="M5 5l14 14M19 5L5 19" stroke="#1A1F2B" stroke-width="2.8" stroke-linecap="round"/>
</symbol><symbol id="icon-warning" viewBox="0 0 24 24">
  <path d="M12 4l9 16H3l9-16z" fill="none" stroke="#1A1F2B" stroke-width="2.2" stroke-linejoin="round"/>
  <path d="M12 9v5" stroke="#1A1F2B" stroke-width="2.2" stroke-linecap="round"/>
  <circle cx="12" cy="17" r="1.2" fill="#1A1F2B"/>
</symbol><symbol id="icon-info" viewBox="0 0 24 24">
  <circle cx="12" cy="12" r="9" fill="none" stroke="#1A1F2B" stroke-width="2.2"/>
  <circle cx="12" cy="8" r="1.4" fill="#1A1F2B"/>
  <path d="M12 11v7" stroke="#1A1F2B" stroke-width="2.2" stroke-linecap="round"/>
</symbol><symbol id="icon-accessibility" viewBox="0 0 24 24">
  <circle cx="12" cy="6" r="2" fill="#1A1F2B"/>
  <path d="M4 10h16M12 8v10M9 12l-3 7M15 12l3 7" stroke="#1A1F2B" stroke-width="2.2" stroke-linecap="round"/>
</symbol><symbol id="icon-gamepad" viewBox="0 0 24 24">
  <path d="M7 9h10a5 5 0 0 1 5 5v2a3 3 0 0 1-3 3h-3l-3-2-3 2H5a3 3 0 0 1-3-3v-2a5 5 0 0 1 5-5z" fill="none" stroke="#1A1F2B" stroke-width="2.2"/>
  <path d="M9 13h-3v-3M6 13v3" stroke="#1A1F2B" stroke-width="2.2" stroke-linecap="round"/>
  <circle cx="16" cy="12.5" r="1.2" fill="#C9A227"/>
  <circle cx="18.5" cy="15" r="1.2" fill="#8AC6A6"/>
</symbol><symbol id="icon-quote" viewBox="0 0 24 24">
  <path d="M8 7h5v5H9c0 3-1 5-3 6" fill="none" stroke="#1A1F2B" stroke-width="2.2" stroke-linejoin="round"/>
  <path d="M16 7h5v5h-4c0 3-1 5-3 6" fill="none" stroke="#1A1F2B" stroke-width="2.2" stroke-linejoin="round"/>
</symbol></svg>