<svg xmlns="http://www.w3.org/2000/svg" viewBox="0 0 240 240" role="img" aria-label="Avatar rétro — homme pointant">
  <defs>
    <style>
      .ink { fill: none; stroke: #1A1F2B; stroke-width: 6; stroke-linecap: round; stroke-linejoin: round; }
      .fill-ink { fill: #1A1F2B; }
      .skin { fill: #F2D6A7; stroke: #1A1F2B; stroke-width: 6; }
      .coat { fill: #C9A227; stroke: #1A1F2B; stroke-width: 6; }
      .shirt { fill: #8AC6A6; stroke: #1A1F2B; stroke-width: 6; }
    </style>
  </defs>
  <circle cx="120" cy="88" r="46" class="skin"/>
  <path d="M88 78c6-22 64-26 74 2 0 0-2 12-10 16 2-18-32-24-52-8-6-5-9-8-12-10z" class="fill-ink"/>
  <path d="M80 92c-4 0-7 3-7 7s3 7 7 7" class="ink"/>
  <circle cx="114" cy="88" r="3" class="fill-ink"/>
  <circle cx="136" cy="88" r="3" class="fill-ink"/>
  <path d="M105 103c8 10 28 10 36 0" class="ink"/>
  <path d="M108 126v18h24v-18" class="ink"/>
  <path d="M120 132l-32 18 32 10 32-10-32-18z" class="shirt"/>
  <path d="M60 170c8-20 28-30 60-30s52 10 60 30v38H60v-38z" class="coat"/>
  <path d="M170 158c14 0 24 4 34 10" class="ink"/>
  <path d="M204 168c10 2 18 6 24 10" class="ink"/>
  <path d="M188 160c-2 8-6 14-10 18" class="ink"/>
  <circle cx="210" cy="176" r="6" class="fill-ink"/>
</svg>